<svg xmlns="http://www.w3.org/2000/svg" width="1200" height="700" viewBox="0 0 1200 700">
  <rect width="1200" height="700" fill="#f8fafc"/>
  <rect x="20" y="20" width="1160" height="70" rx="12" fill="#0f172a"/>
  <text x="50" y="65" fill="#e2e8f0" font-size="30" font-family="Arial">Market Forecast Dashboard · Multi Asset</text>
  <rect x="20" y="110" width="560" height="270" rx="10" fill="#ffffff" stroke="#cbd5e1"/>
  <text x="40" y="145" fill="#334155" font-size="20" font-family="Arial">EWMA Correlation Heatmap</text>
  <rect x="50" y="170" width="150" height="60" fill="#b91c1c"/><rect x="200" y="170" width="150" height="60" fill="#ef4444"/><rect x="350" y="170" width="150" height="60" fill="#fca5a5"/>
  <rect x="50" y="230" width="150" height="60" fill="#ef4444"/><rect x="200" y="230" width="150" height="60" fill="#b91c1c"/><rect x="350" y="230" width="150" height="60" fill="#f87171"/>
  <rect x="50" y="290" width="150" height="60" fill="#fca5a5"/><rect x="200" y="290" width="150" height="60" fill="#f87171"/><rect x="350" y="290" width="150" height="60" fill="#b91c1c"/>
  <rect x="600" y="110" width="580" height="270" rx="10" fill="#ffffff" stroke="#cbd5e1"/>
  <text x="620" y="145" fill="#334155" font-size="20" font-family="Arial">Asset Signal Matrix</text>
  <rect x="630" y="170" width="160" height="60" fill="#16a34a"/><rect x="790" y="170" width="160" height="60" fill="#84cc16"/><rect x="950" y="170" width="160" height="60" fill="#64748b"/>
  <rect x="630" y="230" width="160" height="60" fill="#dc2626"/><rect x="790" y="230" width="160" height="60" fill="#f59e0b"/><rect x="950" y="230" width="160" height="60" fill="#16a34a"/>
  <rect x="630" y="290" width="160" height="60" fill="#64748b"/><rect x="790" y="290" width="160" height="60" fill="#dc2626"/><rect x="950" y="290" width="160" height="60" fill="#84cc16"/>
  <rect x="20" y="400" width="1160" height="280" rx="10" fill="#ffffff" stroke="#cbd5e1"/>
  <text x="40" y="435" fill="#334155" font-size="22" font-family="Arial">Portfolio Risk Decomposition</text>
  <text x="40" y="475" fill="#475569" font-size="20" font-family="Arial">SPY   weight: 0.38   risk contribution: 0.44</text>
  <text x="40" y="510" fill="#475569" font-size="20" font-family="Arial">QQQ   weight: 0.31   risk contribution: 0.35</text>
  <text x="40" y="545" fill="#475569" font-size="20" font-family="Arial">TLT   weight: 0.31   risk contribution: 0.21</text>
</svg>
